<svg xmlns="http://www.w3.org/2000/svg" width="16" height="16" viewBox="0 0 16 16">
    <g fill="none" fill-rule="evenodd">
        <g fill="#1A405D" fill-rule="nonzero">
            <g>
                <g>
                    <g>
                        <path d="M10 3.5c1.325 0 2.41 1.032 2.495 2.336L12.5 6v6c0 1.325-1.032 2.41-2.336 2.495L10 14.5H4c-1.325 0-2.41-1.032-2.495-2.336L1.5 12V8c0-.276.224-.5.5-.5.245 0 .45.177.492.41L2.5 8v4c0 .78.595 1.42 1.356 1.493L4 13.5h6c.78 0 1.42-.595 1.493-1.356L11.5 12V6c0-.78-.595-1.42-1.356-1.493L10 4.5H6c-.276 0-.5-.224-.5-.5 0-.245.177-.45.41-.492L6 3.5h4z" transform="translate(-322 -486) translate(16 480) translate(300) translate(6 6) matrix(-1 0 0 1 14 0)"/>
                        <path d="M14 1.5c.276 0 .5.224.5.5v4l-.008.09c-.042.233-.247.41-.492.41-.276 0-.5-.224-.5-.5V3.206L8.854 7.854c-.196.195-.512.195-.708 0-.173-.174-.192-.443-.057-.638l.057-.07L12.792 2.5H10c-.276 0-.5-.224-.5-.5 0-.245.177-.45.41-.492L10 1.5z" transform="translate(-322 -486) translate(16 480) translate(300) translate(6 6)"/>
                    </g>
                </g>
            </g>
        </g>
    </g>
</svg>
