<svg xmlns="http://www.w3.org/2000/svg" width="16" height="16" viewBox="0 0 16 16">
    <g fill="none" fill-rule="evenodd">
        <g>
            <g>
                <g transform="translate(-126 -486) translate(16 480) translate(110 6)">
                    <path fill="#1A405D" fill-rule="nonzero" d="M7.842 1.526c.103-.035.213-.035.316 0l5.994 1.998c.029.009.056.02.081.034.121.061.2.162.24.275 0 .006.002.01.004.016.006.016.01.034.013.051.007.032.01.066.01.1l-.003-.059.002.035L14.5 4v7c0 .215-.138.406-.342.474l-6 2c-.103.035-.213.035-.316 0l-6-2c-.204-.068-.342-.259-.342-.474V4v-.014c0-.016.002-.033.004-.049L1.51 3.9c.003-.017.007-.035.013-.052l.005-.014c.046-.136.15-.254.314-.308l-.075.032c.025-.014.052-.025.08-.034zM2.5 4.694v5.945l5 1.666V6.5c0-.046.006-.09.018-.133L2.5 4.694zm11-.001L8.482 6.367l.01.043.008.09v5.805l5-1.666V4.693zM8 2.527L3.582 4 8 5.472 12.418 4 8 2.527z"/>
                    <circle cx="13" cy="12" r="3" fill="#EBD514"/>
                    <path fill="#FFF" fill-rule="nonzero" d="M13.26 12.52v-.124c0-.07.021-.13.064-.182.044-.05.15-.132.321-.242.202-.13.35-.265.441-.41.092-.143.138-.314.138-.51 0-.276-.103-.493-.31-.653-.207-.16-.492-.239-.854-.239-.442 0-.865.116-1.27.347l.34.664c.328-.174.615-.261.861-.261.1 0 .18.02.242.06.062.04.093.093.093.162 0 .086-.03.162-.087.23-.058.066-.153.14-.284.224-.166.104-.282.211-.347.32-.065.11-.098.245-.098.405v.21h.75zm-.34 1.322c.157 0 .28-.041.37-.122.09-.082.136-.197.136-.345 0-.148-.044-.263-.13-.345-.088-.082-.213-.123-.376-.123-.169 0-.297.04-.384.122-.087.081-.13.197-.13.346 0 .15.045.265.136.346.091.08.217.12.378.12z"/>
                </g>
            </g>
        </g>
    </g>
</svg>
