<svg xmlns="http://www.w3.org/2000/svg" width="16" height="16" viewBox="0 0 16 16">
    <g fill="none" fill-rule="evenodd">
        <g>
            <g>
                <g transform="translate(-126 -537) translate(16 530) translate(110 7)">
                    <path fill="#1A405D" fill-rule="nonzero" d="M7.842 1.526c.103-.035.213-.035.316 0l5.994 1.998c.029.009.056.02.081.034.121.061.2.162.24.275 0 .006.002.01.004.016.006.016.01.034.013.051.007.032.01.066.01.1l-.003-.059.002.035L14.5 4v7c0 .215-.138.406-.342.474l-6 2c-.103.035-.213.035-.316 0l-6-2c-.204-.068-.342-.259-.342-.474V4v-.014c0-.016.002-.033.004-.049L1.51 3.9c.003-.017.007-.035.013-.052l.005-.014c.046-.136.15-.254.314-.308l-.075.032c.025-.014.052-.025.08-.034zM2.5 4.694v5.945l5 1.666V6.5c0-.046.006-.09.018-.133L2.5 4.694zm11-.001L8.482 6.367l.01.043.008.09v5.805l5-1.666V4.693zM8 2.527L3.582 4 8 5.472 12.418 4 8 2.527z"/>
                    <circle cx="13" cy="12" r="3" fill="#32AA52"/>
                    <path fill="#FFF" fill-rule="nonzero" d="M14.146 10.646c.196-.195.512-.195.708 0 .173.174.192.443.057.638l-.057.07-2.353 2.352-1.354-1.348c-.196-.195-.196-.512-.001-.707.173-.174.442-.194.638-.06l.069.058.646.644 1.647-1.647z"/>
                </g>
            </g>
        </g>
    </g>
</svg>
