<svg xmlns="http://www.w3.org/2000/svg" width="22" height="22" viewBox="0 0 22 22">
    <g fill="none" fill-rule="evenodd">
        <g>
            <g>
                <path d="M0 0H22V22H0z" transform="translate(-16 -16) translate(16 16)"/>
                <path fill="#1A405D" d="M12.904 5.708l4.867 4.866c.029.019.057.041.082.067.074.073.12.164.138.26l.003.024c.003.014.004.03.005.045L18 11v.03c-.005.121-.054.242-.147.335-.025.025-.053.048-.082.066l-4.867 4.867c-.196.195-.512.195-.708 0-.195-.196-.195-.512 0-.708l4.091-4.09H4.5c-.276 0-.5-.224-.5-.5s.224-.5.5-.5h11.781l-4.085-4.085c-.195-.195-.195-.512 0-.707.196-.195.512-.195.708 0z" transform="translate(-16 -16) translate(16 16) matrix(-1 0 0 1 22 0)"/>
            </g>
        </g>
    </g>
</svg>
